<?xml version="1.0" standalone="no"?><!DOCTYPE svg PUBLIC "-//W3C//DTD SVG 1.1//EN" "http://www.w3.org/Graphics/SVG/1.1/DTD/svg11.dtd"><svg class="icon" width="200px" height="200.00px" viewBox="0 0 1024 1024" version="1.1" xmlns="http://www.w3.org/2000/svg"><path d="M729.500262 523.816597c20.583646 2.215962 33.047432 20.151654 53.695077 49.839143 6.151894 8.839848 33.479425 46.135207 39.087328 53.263085 0 0-13.511768-123.733873-16.087723-153.645359-2.495957-28.871504 0.711988-69.470806 0.711987-69.470806l15.175739-337.586198c4.431924-45.543217-24.535578-63.958901-48.327169-65.918867-32.543441-2.679954-64.302895 12.863779-67.654837 57.807006l-41.271291 368.377669 11.903796 90.278448c19.535664 2.88795 37.647353 5.415907 52.767093 7.055879zM528.223721 497.841043c24.831573 1.055982 62.990917 6.135895 122.269899 15.023742l1.543973 0.231996-14.119757-107.126159c-3.383942-26.671542-27.639525-46.743197-56.44703-46.743196-2.463958 0-4.951915 0.151997-7.415873 0.447992l-5.743901 0.703988c-15.13574 1.839968-28.391512 9.175842-37.335358 20.663645-10.079827 12.935778-14.135757 29.831487-11.719799 48.86316l8.967846 67.934832zM402.60188 665.502162c3.367942 26.607543 27.615525 46.671198 56.407031 46.671198 2.471958 0 4.975914-0.151997 7.447872-0.455993l5.743901-0.703988c15.14374-1.831969 28.407512-9.167842 37.343358-20.655645 8.927847-11.455803 13.087775-26.039552 12.23979-42.45527-18.63968-14.583749-29.575492-29.351496-35.255394-38.679335-27.711524-45.503218-12.439786-90.366447 1.895967-104.270208 3.135946-3.031948 7.783866-5.111912 14.687748-6.271892l-5.463906-43.119259c-3.367942-26.615543-27.623525-46.679198-56.423031-46.679198-2.463958 0-4.951915 0.151997-7.415872 0.455992l-5.775901 0.695989c-15.11974 1.839968-28.367512 9.175842-37.319358 20.663644-9.711833 12.471786-13.759764 28.647508-11.871796 46.847195l23.759591 187.95677z" fill="#82529d" /><path d="M697.052819 993.920517c-36.479373 20.767643-91.614425 30.079483-139.765597 30.079483-152.781374 0-243.459816-97.038332-271.219339-171.965044-27.767523-74.942712-36.263377-143.413535-42.807264-266.347423-1.375976-25.863555-68.014831-395.6092-68.014831-395.6092-8.287858-43.823247 7.383873-71.398773 41.159293-78.158657 43.911245-8.783849 65.046882 22.159619 74.486719 57.735008l63.630907 304.490767c0.135998 2.799952 24.279583 194.372659 24.279582 194.372659 4.879916 38.567337 39.367323 67.654837 80.214622 67.654837 3.431941 0 6.911881-0.207996 10.351822-0.623989l5.743901-0.703988c21.51963-2.615955 40.479304-13.167774 53.383082-29.735489 9.175842-11.783797 14.775746-26.15955 16.647714-41.799282 22.11962 12.391787 51.135121 23.031604 89.126468 27.735524a74.798714 74.798714 0 0 0 3.671937 18.60768c-23.183602 10.839814-75.174708 39.831315-94.038383 88.798474a11.983794 11.983794 0 0 0 6.879881 15.503733c3.575939 1.383976 7.383873 0.887985 10.431821-0.927984 2.231962-1.327977 4.07193-3.343943 5.079913-5.951898 20.159654-52.3351 90.702441-79.550633 91.414429-79.830628a12.015793 12.015793 0 0 0 6.39189-16.791711c-2.079964-3.975932-7.55187-17.583698-5.455906-27.703524a12.007794 12.007794 0 0 0-10.703816-14.391752c-0.735987-0.063999-1.391976-0.175997-2.111964-0.239996a285.811088 285.811088 0 0 1-24.119586-3.351943c-34.207412-6.223893-82.766577-33.887418-85.318533-35.903383-1.807969-1.415976-27.039535-28.327513-29.343496-32.119448-20.039656-32.903434-10.199825-65.358877-2.487957-73.942729 0.063999-0.024 1.647972-1.447975 6.327891-1.663971 34.623405-1.623972 202.316523 25.055569 216.052287 26.535544 9.711833 1.047982 20.39165 16.415718 36.567371 39.679318 6.255892 9.007845 61.08695 80.87061 63.774904 84.246552 13.111775 16.487717 22.67961 29.543492 23.2876 37.327358 2.791952 35.927382-9.535836 80.670613-41.223292 149.605429l-0.087998 0.183997c-25.567561 55.575045-64.926884 108.294139-112.206072 135.205676z" fill="#82529d" /></svg>